Title:
Renoir

Country:
France/2012

Language:
French

Director:
Gilles Bourdos

Writers:
Gilles Bourdos (screenplay), Jacques Renoir (based on work by)

Stars:
Michel Bouquet, Christa Theret, Vincent Rottiers 

Synopsis:
Set on the French Riviera in the summer of 1915, Jean Renoir -- son of the Impressionist painter, Pierre-Auguste -- returns home to convalesce after being wounded in World War I. At his side is Andrée, a young woman who rejuvenates, enchants, and inspires both father and son. 

Trivia:
Official Selection Cannes Film Festival 2012

Imdb: 
http://www.imdb.com/title/tt2150332

Trailer: 
http://www.bandes-annonces.fr/film/bande-annonce-renoir.html


Media Info:

Geral
Complete name                            : Renoir.2012.BRRip.XviD.AC3.HORiZON-ArtSubs
Format                                   : AVI
Format/Info                              : Audio Video Interleave
Format profile                           : OpenDML
File size                                : 1.97 GiB
Duration                                 : 1h 51mn
Overall bit rate                         : 2 531 Kbps
Writing application                      : Lavf52.94.0

Vídeo
ID                                       : 0
Format                                   : MPEG-4 Visual
Format profile                           : Simple@L3
Format settings, BVOP                    : Não
Format settings, QPel                    : Não
Format settings, GMC                     : Sem warppoints
Format settings, Matrix                  : Default (H.263)
Codec ID                                 : XVID
Codec ID/Hint                            : XviD
Duration                                 : 1h 51mn
Bit rate                                 : 2 296 Kbps
Width                                    : 1 280 pixels
Height                                   : 720 pixels
Display aspect ratio                     : 16:9
Frame rate                               : 24.000 fps
Color space                              : YUV
Chroma subsampling                       : 4:2:0
Bit depth                                : 8 bits
Scan type                                : Progressivo
Bits/(Pixel*Frame)                       : 0.104
Stream size                              : 1.79 GiB (91%)
Writing library                          : XviD 1.2.1 (UTC 2008-12-04)

Áudio
ID                                       : 1
Format                                   : AC-3
Format/Info                              : Audio Coding 3
Mode extension                           : CM (complete main)
Format settings, Endianness              : Big
Codec ID                                 : 2000
Duration                                 : 1h 51mn
Bit rate mode                            : Constante
Bit rate                                 : 224 Kbps
Channel(s)                               : 2 canais
Channel positions                        : Front: L R
Sampling rate                            : 48.0 KHz
Bit depth                                : 16 bits
Stream size                              : 179 MiB (9%)
Alignment                                : Alinhado intercalado
Interleave, duration                     : 32 ms (0.77 quadro de vídeo)
Interleave, preload duration             : 32 ms

